<?xml version="1.0" encoding="utf-8"?>
<svg xmlns="http://www.w3.org/2000/svg" viewBox="0 0 48 48" width="144" height="144">
  <path d="M8.5 8C6.019 8 4 10.019 4 12.5L4 35.5C4 37.981 6.019 40 8.5 40L39.5 40C41.981 40 44 37.981 44 35.5L44 17.5C44 15.019 41.981 13 39.5 13L24.042969 13L19.572266 9.2734375C18.586266 8.4514375 17.335734 8 16.052734 8L8.5 8 z M 24 19C24.552 19 25 19.448 25 20L25 30.5C25 30.538 24.982516 30.570422 24.978516 30.607422L28.292969 27.292969C28.683969 26.901969 29.316031 26.901969 29.707031 27.292969C30.098031 27.683969 30.098031 28.316031 29.707031 28.707031L24.707031 33.707031C24.512031 33.902031 24.256 34 24 34C23.744 34 23.487969 33.902031 23.292969 33.707031L18.292969 28.707031C17.901969 28.316031 17.901969 27.683969 18.292969 27.292969C18.683969 26.901969 19.316031 26.901969 19.707031 27.292969L23.021484 30.607422C23.017484 30.570422 23 30.538 23 30.5L23 20C23 19.448 23.448 19 24 19 z M 23.892578 31.478516L24 31.585938L24.107422 31.478516C24.070422 31.482516 24.038 31.5 24 31.5C23.962 31.5 23.929578 31.482516 23.892578 31.478516 z" fill="#090907" />
</svg>