<svg xmlns="http://www.w3.org/2000/svg" width="342" height="44.896" viewBox="0 0 342 44.896">
  <g id="Logo" transform="translate(-40 -28)">
    <path id="icons8_google_translate" d="M7.033,2A4.782,4.782,0,0,0,2,6.49v20.2a4.782,4.782,0,0,0,5.033,4.49H9.549v4.49l5.033,4.49h5.033v2.245a4.782,4.782,0,0,0,5.033,4.49H47.295a4.782,4.782,0,0,0,5.033-4.49V22.2a4.782,4.782,0,0,0-5.033-4.49H34.713V6.49A4.782,4.782,0,0,0,29.68,2Zm0,4.49H29.68V17.714H24.647a5.16,5.16,0,0,0-4.01,1.824c-.4-.246-.747-.535-1.1-.772a24.159,24.159,0,0,0,4.482-5.542h3.145V10.979H19.615V8.734H17.1v2.245H9.549v2.245H12.38a1.024,1.024,0,0,0-.236,1.122,9.937,9.937,0,0,0,1.73,2.666,18.661,18.661,0,0,0,1.887,1.824,25.194,25.194,0,0,1-5.347,3.157,1.1,1.1,0,0,0-.708,1.473,1.327,1.327,0,0,0,1.651.631,26.108,26.108,0,0,0,6.37-3.718c.59.4,1.258.781,1.966,1.193a4.446,4.446,0,0,0-.079.631v4.49H7.033Zm7.235,6.734H21.03a22.412,22.412,0,0,1-3.46,4.139,15.565,15.565,0,0,1-1.73-1.684,5.533,5.533,0,0,1-1.258-1.964A1.173,1.173,0,0,0,14.267,13.224ZM34.32,24.448h3.3l7.156,17.959H41.869L39.982,37.5H31.8l-1.809,4.911H27.164Zm1.494,2.034c-.315,1.07-3.224,9.19-3.224,9.19h6.684s-3.067-8.146-3.381-9.19Zm-21.232,4.7h5.033v4.49H14.582Z" transform="translate(38 26)" fill="#fff"/>
    <text id="Program_Translator" data-name="Program Translator" transform="translate(104 53)" fill="#fff" font-size="30" font-family="BraahOne-Regular, Braah One"><tspan x="0" y="0">Program Translator</tspan></text>
  </g>
</svg>
