<?xml version="1.0" encoding="utf-8"?>
<svg xmlns="http://www.w3.org/2000/svg" viewBox="0 0 30 30" width="480" height="480">
  <path d="M6 3C4.895 3 4 3.895 4 5L4 16L7 13L18 13C19.105 13 20 12.105 20 11L20 5C20 3.895 19.105 3 18 3L6 3 z M 11 5L11 7L15 7C15.552 7 16 7.448 16 8C16 8.552 15.552 9 15 9L11 9L11 11L8 8L11 5 z M 12 15C10.895 15 10 15.895 10 17L10 23C10 24.105 10.895 25 12 25L23 25L26 28L26 17C26 15.895 25.105 15 24 15L12 15 z M 19 17L22 20L19 23L19 21L15 21C14.448 21 14 20.552 14 20C14 19.448 14.448 19 15 19L19 19L19 17 z" fill="#FFFFFE" />
</svg>